<svg xmlns="http://www.w3.org/2000/svg" width="55" height="39" viewBox="0 0 55 39">
  <path fill="#FFF" d="M48.7018605,37.3880034 C50.3358721,36.0571391 51.3840698,34.0234442 51.3840698,31.7460155 L51.3802326,6.35706964 L28.1977326,6.34094967 L28.1938953,31.7460155 C28.1938953,34.0234442 29.2427326,36.0571391 30.8761047,37.3880034 L15.9666279,37.3880034 L15.9666279,21.731648 L27.9348837,7.88911117 L23.7369767,7.88911117 L24.7685465,6.68656174 C25.1036628,6.83551022 25.4726744,6.92191323 25.8615116,6.92191323 C27.3612209,6.92191323 28.5814535,5.69163746 28.5814535,4.17958468 C28.5814535,3.64633622 28.4234884,3.15177568 28.1612791,2.73007738 L29.598314,1.05489055 L28.3889535,0 L26.9551163,1.67196283 C26.62,1.52301435 26.2509884,1.43661134 25.8615116,1.43661134 C24.3618023,1.43661134 23.1415698,2.66688711 23.1415698,4.17893988 C23.1415698,4.71218835 23.2995349,5.20674889 23.5623837,5.62844719 L21.623314,7.88911117 L2.39953488,7.88911117 L14.3677907,21.731648 L14.3677907,37.3880034 L0,37.3880034 L0,39 L55,39 L55,37.3880034 L48.7018605,37.3880034 Z M25.8615116,3.0486079 C26.4799419,3.0486079 26.9826163,3.55606441 26.9826163,4.17893988 C26.9826163,4.80181536 26.4793023,5.30927187 25.8615116,5.30927187 C25.2437209,5.30927187 24.740407,4.80181536 24.740407,4.17893988 C24.740407,3.55606441 25.2437209,3.0486079 25.8615116,3.0486079 Z M17.3499419,15.3346009 L19.3759884,15.3346009 L15.1672093,20.2021857 L14.1669767,19.045417 L17.3499419,15.3346009 Z M13.1059884,17.8183652 L10.9584302,15.3346009 L15.2362791,15.3346009 L13.1059884,17.8183652 Z M24.4206395,9.50110773 L20.7701744,13.7232491 L18.7332558,13.7232491 L22.3549419,9.50110773 L24.4206395,9.50110773 Z M20.2406395,9.50110773 L16.6189535,13.7232491 L9.56488372,13.7232491 L5.9144186,9.50110773 L20.2406395,9.50110773 Z M49.7858721,7.969711 L49.7858721,19.8178857 L29.7933721,19.8178857 L29.7933721,7.969711 L49.7858721,7.969711 Z M35.3893023,37.3880034 C32.3035465,37.3880034 29.7933721,34.8571688 29.7933721,31.7460155 L29.7933721,21.4292375 L49.7858721,21.4292375 L49.7858721,31.7460155 C49.7858721,34.8571688 47.2756977,37.3880034 44.1899419,37.3880034 L35.3893023,37.3880034 Z M31,10 L33,10 L33,15 L31,15 L31,10 Z M31,17 L33,17 L33,19 L31,19 L31,17 Z M34,23 C32.3456129,23 31,24.3454627 31,25.9996651 C31,27.6545373 32.3462827,29 34,29 C35.6537173,29 37,27.6538676 37,25.9996651 C37,24.3454627 35.6543871,23 34,23 Z M34,27.325706 C33.2685867,27.325706 32.6744809,26.730327 32.6744809,25.9996651 C32.6744809,25.2690032 33.2692565,24.674294 34,24.674294 C34.7307435,24.674294 35.3255191,25.2690032 35.3255191,25.9996651 C35.3255191,26.730327 34.7307435,27.325706 34,27.325706 Z M39,28 C37.3456129,28 36,29.3454627 36,30.9996651 C36,32.6545373 37.3462827,34 39,34 C40.6537173,34 42,32.6538676 42,30.9996651 C42,29.3454627 40.6543871,28 39,28 Z M39,32.325706 C38.2685867,32.325706 37.6744809,31.730327 37.6744809,30.9996651 C37.6744809,30.2690032 38.2692565,29.674294 39,29.674294 C39.7307435,29.674294 40.3255191,30.2690032 40.3255191,30.9996651 C40.3255191,31.7309968 39.7307435,32.325706 39,32.325706 Z"/>
</svg>
