<svg xmlns="http://www.w3.org/2000/svg" width="50" height="48" viewBox="0 0 50 48">
  <path fill="#FFF" d="M88.7825795,7671 C88.1950263,7671 87.7187498,7671.47755 87.7187498,7672.06667 L87.7187498,7678.61666 C85.8928392,7679.09611 84.5272605,7680.75924 84.5272605,7682.73334 C84.5272605,7685.07707 86.4450264,7687.00001 88.7825795,7687.00001 C91.1201327,7687.00001 93.0378986,7685.07707 93.0378986,7682.73334 C93.0378986,7680.75924 91.6723199,7679.09611 89.8464093,7678.61666 L89.8464093,7672.06667 C89.8464093,7671.47755 89.3701327,7671 88.7825795,7671 Z M113.250665,7671 C112.663112,7671 112.186835,7671.47755 112.186835,7672.06667 L112.186835,7678.61666 C110.360926,7679.09611 108.995346,7680.75924 108.995346,7682.73334 C108.995346,7685.07707 110.913112,7687.00001 113.250665,7687.00001 C115.588218,7687.00001 117.505984,7685.07707 117.505984,7682.73334 C117.505984,7680.75924 116.140404,7679.09611 114.314495,7678.61666 L114.314495,7672.06667 C114.314495,7671.47755 113.838218,7671 113.250665,7671 Z M81.3357712,7674.2 C78.3990159,7674.2 76,7676.60541 76,7679.55 L76,7713.64998 C76,7716.59451 78.3990159,7719 81.3357712,7719 L120.664229,7719 C123.600984,7719 126,7716.59451 126,7713.64998 L126,7679.55 C126,7676.60541 123.600984,7674.2 120.664229,7674.2 L117.489362,7674.2 C116.927341,7674.192 116.40891,7674.70309 116.40891,7675.26667 C116.40891,7675.83024 116.927341,7676.34128 117.489362,7676.33333 L120.664229,7676.33333 C122.456995,7676.33333 123.87234,7677.7524 123.87234,7679.55 L123.87234,7689.13334 L78.1276595,7689.13334 L78.1276595,7679.55 C78.1276595,7677.7524 79.5428989,7676.33333 81.3357712,7676.33333 L84.5106381,7676.33333 C85.0726594,7676.34133 85.5910902,7675.83024 85.5910902,7675.26667 C85.5910902,7674.70309 85.0726594,7674.19205 84.5106381,7674.2 L81.3357712,7674.2 Z M93.0212762,7674.2 C92.4337231,7674.2 91.9574465,7674.67755 91.9574465,7675.26667 C91.9574465,7675.85579 92.4337231,7676.33333 93.0212762,7676.33333 L108.978724,7676.33333 C109.566277,7676.33333 110.042554,7675.85579 110.042554,7675.26667 C110.042554,7674.67755 109.566277,7674.2 108.978724,7674.2 L93.0212762,7674.2 Z M88.7825795,7680.6 C89.9702391,7680.6 90.910239,7681.54245 90.910239,7682.73334 C90.910239,7683.92417 89.9702391,7684.86667 88.7825795,7684.86667 C87.59492,7684.86667 86.65492,7683.92417 86.65492,7682.73334 C86.65492,7681.54245 87.59492,7680.6 88.7825795,7680.6 Z M113.250665,7680.6 C114.438325,7680.6 115.378325,7681.54245 115.378325,7682.73334 C115.378325,7683.92417 114.438325,7684.86667 113.250665,7684.86667 C112.063006,7684.86667 111.123006,7683.92417 111.123006,7682.73334 C111.123006,7681.54245 112.063006,7680.6 113.250665,7680.6 Z M78.1276595,7691.26667 L123.87234,7691.26667 L123.87234,7713.64998 C123.87234,7715.44757 122.456995,7716.86667 120.664229,7716.86667 L81.3357712,7716.86667 C79.5428989,7716.86667 78.1276595,7715.44757 78.1276595,7713.64998 L78.1276595,7691.26667 Z" transform="translate(-76 -7671)"/>
</svg>
