<svg xmlns="http://www.w3.org/2000/svg" width="41" height="41" viewBox="0 0 41 41">
  <path fill="#FFF" d="M64.8331115,17.2810316 C64.8331115,17.2810316 64.8331115,17.2143095 64.8331115,17.2810316 C63.4986689,7.53960067 55.0916805,0 45.0166389,0 C40.412812,0 36.1425957,1.60133111 32.7397671,4.20349418 C32.6730449,4.27021631 32.6063228,4.33693844 32.4728785,4.40366057 C27.9357737,8.0733777 25,13.7447587 25,20.0166389 C25,28.4236273 30.2043261,35.6296173 37.6104825,38.6321131 C37.6772047,38.6321131 37.6772047,38.6988353 37.7439268,38.6988353 C40.0124792,39.566223 42.481198,40.1 45.0833611,40.1 C56.0925125,40.1 65.1,31.0925125 65.1,20.0833611 C65.0332779,19.0825291 64.9665557,18.1484193 64.8331115,17.2810316 Z M45.6171381,2.00166389 C53.3569052,2.26855241 59.8956739,7.40615641 62.1642263,14.4787022 C55.3585691,9.20765391 48.0191348,8.47371048 43.014975,9.67470882 C43.3485857,7.47287854 44.0825291,4.9374376 45.6171381,2.00166389 Z M34.1409318,5.67138103 C36.7430948,3.66971714 39.9457571,2.40199667 43.3485857,2.06838602 C38.2777038,12.6104825 42.4144759,18.6154742 43.8823627,20.2835275 C43.5487521,21.3510815 42.3477537,23.9532446 38.9449251,25.9549085 C35.2084859,22.3519135 31.9391015,15.0792013 34.1409318,5.67138103 Z M27.0016639,20.0166389 C27.0016639,15.3460899 28.7364393,11.1425957 31.672213,7.93993344 C30.4712146,16.4803661 33.5404326,23.152579 37.0767055,26.8890183 C35.0750416,27.756406 32.4728785,28.3569052 29.136772,28.4903494 C27.8023295,25.9549085 27.0016639,23.0858569 27.0016639,20.0166389 Z M30.3377704,30.4252912 C42.0141431,29.5579035 45.1500832,22.9524126 45.8173045,20.8173045 C46.9515807,20.6171381 49.7539101,20.3502496 53.2234609,22.2851913 C51.9557404,27.2893511 47.3519135,33.8281198 38.0775374,36.6304493 C34.9415973,35.2960067 32.2727121,33.1608985 30.3377704,30.4252912 Z M45.0166389,38.031614 C43.6821963,38.031614 42.4144759,37.8981697 41.2134775,37.6312812 C49.2201331,34.3618968 53.4903494,28.4236273 54.9582363,23.4861897 C56.6930116,24.8206323 58.4945092,26.755574 60.2960067,29.5579035 C57.0933444,34.6287854 51.4886855,38.031614 45.0166389,38.031614 Z M61.3635607,27.5562396 C54.7580699,17.8815308 47.4853577,18.48203 45.3502496,18.9490849 C44.6163062,18.0816972 42.9482529,15.7464226 42.9482529,11.809817 C47.9524126,10.4086522 55.8923461,11.1425957 62.8981697,17.8148087 C62.9648918,18.5487521 63.031614,19.2826955 63.031614,20.0833611 C63.031614,22.6855241 62.4311148,25.2209651 61.3635607,27.5562396 Z" transform="translate(-25)"/>
</svg>
