<svg xmlns="http://www.w3.org/2000/svg" width="79" height="51" viewBox="0 0 79 51">
  <path fill="#FFF" d="M662.162795,176.403113 L662.162795,171.298444 L668.243307,171.298444 L659.06811,156 L621.93189,156 L612.756693,171.298444 L618.837205,171.298444 L618.837205,176.403113 L601,176.403113 L601,207 L680,207 L680,176.403113 L662.162795,176.403113 Z M617.266535,168.761672 L623.37815,158.567897 L657.606299,158.567897 L663.717913,168.761672 L617.266535,168.761672 Z M618.837205,204.463229 L603.550394,204.463229 L603.550394,178.955447 L618.837205,178.955447 L618.837205,204.463229 Z M634.124016,204.463229 L634.124016,190.440952 L646.875984,190.440952 L646.875984,204.463229 L634.124016,204.463229 Z M641.775197,181.632286 C644.683268,182.22368 646.875984,184.807141 646.875984,187.873055 L641.775197,187.873055 L641.775197,181.632286 Z M639.224803,187.888618 L634.124016,187.888618 C634.124016,184.807141 636.316732,182.239243 639.224803,181.647849 L639.224803,187.888618 Z M659.612402,204.463229 L649.426378,204.463229 L649.426378,187.888618 C649.426378,182.970705 645.429724,178.955447 640.5,178.955447 C635.585827,178.955447 631.573622,182.955142 631.573622,187.888618 L631.573622,204.463229 L621.372047,204.463229 L621.372047,171.314007 L659.59685,171.314007 L659.59685,204.463229 L659.612402,204.463229 Z M677.449606,204.463229 L662.162795,204.463229 L662.162795,178.955447 L677.449606,178.955447 L677.449606,204.463229 Z M616.286811,181.507782 L616.286811,191.701556 L606.100787,191.701556 L606.100787,181.507782 L616.286811,181.507782 Z M613.736417,189.164785 L613.751969,189.164785 L613.751969,184.060116 L608.651181,184.060116 L608.651181,189.164785 L613.736417,189.164785 Z M674.899213,181.507782 L664.713189,181.507782 L664.713189,191.701556 L674.899213,191.701556 L674.899213,181.507782 Z M672.348819,189.164785 L667.248031,189.164785 L667.248031,184.060116 L672.348819,184.060116 L672.348819,189.164785 Z" transform="translate(-601 -156)"/>
</svg>
