<svg xmlns="http://www.w3.org/2000/svg" width="54" height="35" viewBox="0 0 54 35">
  <path fill="#FFF" fill-rule="evenodd" d="M61.0788687,0.000222759604 L61.0788687,3.98976128e-05 C64.837536,-0.0119192766 68.7003736,2.66561915 68.9266958,6.74307583 C68.9339493,7.05265508 68.9298045,7.27696579 68.8133214,7.63830718 C66.7201611,13.452581 64.6102385,19.2621308 62.546519,25.0864071 C61.6425712,27.5910069 60.3519313,29.0651184 58.2987569,30.972308 C55.8712639,32.8056823 52.1098537,34.3437955 48.6413854,34.3437955 C37.9366444,34.3437955 27.2013045,34.3437955 16.4881523,34.3437955 C15.5695146,34.3367857 14.5819379,33.1954831 15.4976498,32.1913879 L40.8316545,4.34298171 C41.1658043,3.97357002 41.4690505,3.74831452 42.1071169,3.71460696 L54.8121882,3.73362461 L55.2502646,3.21932526 C57.924987,0.242002885 59.987914,0.0167412928 61.0788687,0.000222759604 Z M42.4688179,6.15276684 L19.0206082,31.9056965 C28.8796119,31.9056965 38.7491002,31.9056965 48.6023139,31.9056965 C51.2327227,31.8200562 54.3847179,30.9218381 56.7930103,29.0484779 C58.1106528,28.0234755 59.2204423,26.7289345 59.9549989,25.0864681 C60.13908,24.5872549 60.3175533,24.0857863 60.4883464,23.5816358 C60.7685519,22.5488922 60.922034,21.3987513 60.9074051,20.1148772 C60.7191791,17.1160625 59.6766829,15.2454209 58.2977816,14.0956456 C56.9145526,12.9420303 55.1109847,12.4939575 53.3452693,12.6479882 C51.5798587,12.802019 49.886127,13.5791824 48.7737165,14.7432819 C47.6624642,16.0301061 47.061214,17.3619509 47.4404088,19.2958384 C48.3128433,22.7202949 50.4119161,23.7528556 52.2405391,23.6578283 C54.066538,23.5629839 55.5858164,22.3694437 55.5358341,20.1910697 C55.4110003,18.6634407 54.9388506,17.8687834 54.4881568,17.4862361 C54.034781,17.1012507 53.5437965,17.0442587 53.059578,17.1624485 C52.5753594,17.2805773 52.1592265,17.6088755 51.992883,17.9814873 C51.8265396,18.3541601 51.7846642,18.7877259 52.297653,19.5434335 C52.656672,20.0720266 52.5024584,20.879667 51.9738044,21.238747 C51.4452113,21.5977661 50.6375678,21.4434915 50.2785488,20.9148984 C49.3933139,19.6107877 49.2535464,18.1357619 49.764219,16.9909849 C50.2751963,15.8462079 51.3049562,15.0654237 52.4691166,14.7813781 C53.6329722,14.4973325 55.0077896,14.737735 56.0691816,15.6385742 C57.1305735,16.5393767 57.8177079,18.0204369 57.973994,20.0196671 C57.9744207,20.0391724 57.9744207,20.0580681 57.973994,20.0769638 C58.0771891,23.5341527 55.3293219,25.9415917 52.3547669,26.0961711 C49.3805745,26.2506894 46.1448925,24.1711219 45.0593628,19.8483864 C44.5297335,17.7429134 44.9737224,15.7945798 46.5451165,13.6005773 C48.5964013,11.1219439 50.7246101,8.66735694 52.7738866,6.17178449 L42.4688179,6.15276684 Z M61.1740788,2.38123827 L61.1740788,2.3809335 C59.3022425,2.3963 58.2590758,3.31190828 57.2647333,4.35444716 C55.4287379,6.4186177 54.2648823,8.02003159 52.4881342,10.2858989 C52.7047647,10.2529837 52.9170675,10.2286021 53.1357705,10.2097064 C53.4258505,10.1847153 53.7190393,10.1719149 54.0119842,10.1719149 C56.0627204,10.1716711 58.1646581,10.7966324 59.8597887,12.2100947 C61.2101636,13.3362198 62.2610715,14.969726 62.8503137,17.0483426 L66.5075536,6.87659556 C66.3520599,4.24553456 63.7172624,2.39013756 61.1740788,2.38123827 Z M43.3172616,7.45065421 C43.7980312,7.45153973 44.2333905,7.7348772 44.4288786,8.17410902 C44.6243667,8.61334083 44.5434779,9.12644394 44.2223425,9.48423194 L28.0698332,28.0098218 C27.7851972,28.343878 27.3429832,28.4991755 26.9119775,28.4164396 C26.4809718,28.3337036 26.1276925,28.0257031 25.9869812,27.6099971 C25.8462698,27.194291 25.9398425,26.7350366 26.2319842,26.4075241 L42.3844929,7.88194031 C42.6166807,7.60776334 42.9579794,7.44995641 43.3172616,7.45065421 Z M34.3372554,23.3440371 C34.8180208,23.3402731 35.2561068,23.6193982 35.455828,24.0567321 C35.6555492,24.4940661 35.5796076,25.0079368 35.2619251,25.368807 L32.9475616,28.0746159 C32.5097732,28.5857191 31.7406721,28.6454752 31.2291928,28.2081263 C30.7177135,27.7707774 30.6572963,27.001728 31.0942053,26.4898729 L33.4085469,23.784064 C33.6381567,23.5077103 33.9779715,23.3467043 34.3372554,23.3440371 Z M41.6447656,14.8121599 C42.1255157,14.8095383 42.5629208,15.0896771 42.7616155,15.5274532 C42.9603102,15.9652294 42.8831919,16.4788963 42.5647053,16.8390266 L37.3089932,22.957284 C37.0276038,23.2961049 36.5853516,23.4568234 36.1520831,23.3777158 C35.7188147,23.2986082 35.3618933,22.9919738 35.2183945,22.5755754 C35.0748956,22.159177 35.16713,21.697755 35.4596751,21.3685181 L40.7147179,15.2501753 C40.9450128,14.9742156 41.2853406,14.8139348 41.6447656,14.8121599 Z" transform="translate(-15)"/>
</svg>
