<svg xmlns="http://www.w3.org/2000/svg" width="41" height="65" viewBox="0 0 41 65">
  <path fill="#FFF" d="M51.159,62.589 L33.869,0 L32.062,0.499 L41.231,33.691 L26.625,33.691 L18.345,33.691 L17,33.691 L17,50.609 L19.446,49.535 L20.484,64.465 L40.017,64.465 L41.97,36.365 L49.214,62.59 L43.438,62.59 L43.438,64.465 L57.063,64.465 L57.063,62.59 L51.159,62.59 L51.159,62.589 Z M19,47.548 L19,35.693 L20.725,35.693 L24.625,35.693 L24.625,45.08 L19,47.548 Z M38.15,62.464 L22.35,62.464 L21.391,48.681 L26.624,46.386 L26.624,35.693 L40.011,35.693 L38.15,62.464 Z M20.374,32.416 C19.64,32.321 18.987,31.945 18.536,31.359 C18.085,30.772 17.888,30.044 17.984,29.31 C18.178,27.815 19.552,26.703 21.09,26.919 C21.824,27.014 22.477,27.39 22.929,27.976 C23.381,28.563 23.577,29.29 23.482,30.024 C23.303,31.401 22.123,32.44 20.736,32.44 C20.616,32.44 20.496,32.433 20.374,32.416 Z M20.73,28.897 C20.344,28.897 20.016,29.186 19.968,29.569 C19.941,29.774 19.996,29.976 20.121,30.139 C20.247,30.302 20.429,30.407 20.634,30.434 C21.071,30.486 21.445,30.184 21.499,29.767 C21.525,29.563 21.47,29.361 21.345,29.198 C21.219,29.035 21.037,28.93 20.832,28.903 C20.797,28.899 20.764,28.897 20.73,28.897 Z M24.701,27.231 C23.66,27.095 22.735,26.563 22.095,25.731 C21.455,24.9 21.177,23.87 21.312,22.829 C21.588,20.711 23.548,19.155 25.713,19.44 C26.753,19.575 27.679,20.107 28.319,20.938 C28.959,21.77 29.237,22.8 29.102,23.84 C28.849,25.791 27.176,27.263 25.21,27.263 C25.042,27.263 24.872,27.252 24.701,27.231 Z M23.295,23.086 C23.228,23.597 23.365,24.103 23.679,24.511 C23.993,24.919 24.447,25.181 24.957,25.247 C26.029,25.38 26.983,24.622 27.118,23.582 C27.185,23.071 27.048,22.565 26.734,22.158 C26.42,21.75 25.966,21.488 25.456,21.422 C25.371,21.411 25.287,21.406 25.204,21.406 C24.24,21.406 23.42,22.128 23.295,23.086 Z M25.007,29.368 C25.101,28.642 25.783,28.112 26.517,28.206 C27.254,28.303 27.775,28.98 27.68,29.716 C27.593,30.385 27.018,30.89 26.344,30.89 C26.287,30.89 26.229,30.886 26.171,30.879 C25.432,30.782 24.911,30.104 25.007,29.368 Z M26.687,29.587 C26.712,29.398 26.577,29.223 26.386,29.198 C26.384,29.198 26.381,29.198 26.379,29.198 C26.164,29.198 26.02,29.327 25.998,29.497 C25.973,29.688 26.108,29.863 26.298,29.887 L26.343,29.89 C26.517,29.89 26.664,29.76 26.687,29.587 Z" transform="translate(-17)"/>
</svg>
