<svg xmlns="http://www.w3.org/2000/svg" width="40" height="45" viewBox="0 0 40 45">
  <path fill="#FFF" d="M38.8605153,31.152421 L38.865055,31.152421 C39.4918678,31.152421 40,31.6663278 40,32.3002641 C40,32.9342003 39.4918678,33.4481072 38.865055,33.4481072 C37.8390648,33.4481072 37.4077857,33.8751048 36.5588469,34.8255189 C35.7099081,35.7759329 34.6475996,36.9559156 32.5729202,36.9559156 C30.4982408,36.9559156 29.3996141,35.7437933 28.5869935,34.8255189 C27.7743729,33.9072444 27.3022358,33.4481072 26.2807854,33.4481072 C25.2593349,33.4481072 24.8325956,33.8751048 23.979117,34.8255189 C23.1256384,35.7759329 22.0678697,36.9559156 19.9931903,36.9559156 C17.918511,36.9559156 16.8153445,35.7437933 16.0072636,34.8255189 C15.1991828,33.9072444 14.7270457,33.4481072 13.7055953,33.4481072 C12.6841448,33.4481072 12.2574055,33.8751048 11.4039269,34.8255189 C10.5504483,35.7759329 9.48813983,36.9559156 7.41800023,36.9559156 C5.34786063,36.9559156 4.24923391,35.7437933 3.43661332,34.8255189 C2.62399274,33.9072444 2.15639541,33.4481072 1.13494496,33.4481072 C0.508132165,33.4481072 0,32.9342003 0,32.3002641 C0,31.6663278 0.508132165,31.152421 1.13494496,31.152421 C3.20054477,31.152421 4.29917149,32.3645433 5.11179208,33.2828178 C5.92441267,34.2010922 6.39200999,34.6602295 7.41346045,34.6602295 C8.43491091,34.6602295 8.86165021,34.2332318 9.71512882,33.2828178 C10.5686074,32.3324037 11.6263761,31.152421 13.7010555,31.152421 C15.7757349,31.152421 16.8789014,32.3645433 17.6869822,33.2828178 C18.495063,34.2010922 18.9672001,34.6602295 19.9886506,34.6602295 C21.010101,34.6602295 21.4368403,34.2332318 22.2903189,33.2828178 C23.1437975,32.3324037 24.2015662,31.152421 26.2762456,31.152421 C28.350925,31.152421 29.4495517,32.3645433 30.2621723,33.2828178 C31.0747929,34.2010922 31.5423902,34.6602295 32.5683804,34.6602295 C33.5943707,34.6602295 34.0256498,34.2332318 34.8745886,33.2828178 C35.7235274,32.3324037 36.7858359,31.152421 38.8605153,31.152421 Z M38.8605153,39.1965053 L38.865055,39.1965053 C39.4918678,39.1965053 40,39.7104122 40,40.3443484 C40,40.9782847 39.4918678,41.4921915 38.865055,41.4921915 C37.8390648,41.4921915 37.4077857,41.9191892 36.5588469,42.8696032 C35.7099081,43.8200173 34.6521394,45 32.5729202,45 C30.4937011,45 29.4041539,43.7878777 28.5915333,42.8696032 C27.7789127,41.9513288 27.3067756,41.4921915 26.2853252,41.4921915 C25.2638747,41.4921915 24.8371354,41.9191892 23.9836568,42.8696032 C23.1301782,43.8200173 22.0769493,45 19.9977301,45 C17.918511,45 16.8153445,43.7878777 16.0072636,42.8696032 C15.1991828,41.9513288 14.7270457,41.4921915 13.7055953,41.4921915 C12.6841448,41.4921915 12.2574055,41.9191892 11.4039269,42.8696032 C10.5504483,43.8200173 9.49267961,45 7.41800023,45 C5.34332085,45 4.24923391,43.7878777 3.43661332,42.8696032 C2.62399274,41.9513288 2.15639541,41.4921915 1.13494496,41.4921915 C0.508132165,41.4921915 0,40.9782847 0,40.3443484 C0,39.7104122 0.508132165,39.1965053 1.13494496,39.1965053 C3.20054477,39.1965053 4.30825105,40.4086276 5.11633186,41.3269021 C5.92441267,42.2451766 6.40108955,42.7043138 7.42254001,42.7043138 C8.44399047,42.7043138 8.87072977,42.2773162 9.72420838,41.3269021 C10.577687,40.376488 11.6354557,39.1965053 13.7101351,39.1965053 C15.7848144,39.1965053 16.8879809,40.4086276 17.6960617,41.3269021 C18.5041425,42.2451766 18.9808194,42.7043138 19.9977301,42.7043138 C21.0146408,42.7043138 21.4368403,42.2773162 22.2903189,41.3269021 C23.1437975,40.376488 24.2015662,39.1965053 26.2762456,39.1965053 C28.350925,39.1965053 29.4495517,40.4086276 30.2621723,41.3269021 C31.0747929,42.2451766 31.5423902,42.7043138 32.5683804,42.7043138 C33.5943707,42.7043138 34.0256498,42.2773162 34.8745886,41.3269021 C35.7235274,40.376488 36.7858359,39.1965053 38.8605153,39.1965053 Z M16.0799001,2.30023712 C14.9842314,2.30023712 14.0960163,3.1985463 14.0960163,4.30666683 L14.0960163,8.58123449 L26.5804109,8.58123449 L26.5804109,4.30666683 C26.5828222,2.30677739 27.9475589,0.572299835 29.8739355,0.120844919 C31.8003121,-0.330609996 33.7802548,0.620027114 34.6521394,2.41502142 C34.927937,2.98429616 34.6952125,3.67190353 34.1323346,3.95083548 C33.5694567,4.22976742 32.8895759,3.99439808 32.6137782,3.42512334 C32.2065973,2.58931611 31.2840739,2.14698826 30.3865503,2.35722098 C29.4890268,2.56745369 28.8527083,3.37491907 28.8503008,4.30666683 L28.8503008,27.0110031 C28.8503008,27.6449394 28.3421686,28.1588462 27.7153558,28.1588462 C27.088543,28.1588462 26.5804109,27.6449394 26.5804109,27.0110031 L26.5804109,24.3388244 L14.0960163,24.3388244 L14.0960163,26.997229 C14.0960163,27.6311652 13.5878842,28.1450721 12.9610714,28.1450721 C12.3342586,28.1450721 11.8261264,27.6311652 11.8261264,26.997229 L11.8261264,4.30666683 C11.8242263,2.30307333 13.1901653,0.563402038 15.1201646,0.111352391 C17.0501638,-0.340697257 19.0332115,0.614565318 19.9023947,2.41502142 C20.0808045,2.78327761 20.0514072,3.21982253 19.8252766,3.56021394 C19.5991459,3.90060535 19.2106365,4.09312969 18.806096,4.0652649 C18.4015555,4.03740012 18.0424434,3.79337953 17.8640336,3.42512334 C17.5325001,2.73454364 16.8389447,2.2972608 16.0799001,2.30023712 Z M14.0960163,22.0431382 L26.5804109,22.0431382 L26.5804109,17.6032812 L14.0960163,17.6032812 L14.0960163,22.0431382 Z M26.5804109,10.8769207 L14.0960163,10.8769207 L14.0960163,15.307595 L26.5804109,15.307595 L26.5804109,10.8769207 Z"/>
</svg>
