<svg xmlns="http://www.w3.org/2000/svg" width="17" height="24" viewBox="0 0 17 24">
  <path fill="#FFF" d="M941.590149,8830.322 L944.434149,8829 L948.475149,8836.89 L945.751149,8838.231 C945.213149,8839.49 947.910149,8844.52 949.048149,8844.603 C949.138149,8844.545 951.719149,8843.275 951.719149,8843.275 L955.829149,8851.207 C955.829149,8851.207 953.065149,8852.561 952.975149,8852.603 C945.113149,8856.194 933.872149,8834.345 941.590149,8830.322 Z M943.519149,8831.596 L942.496149,8832.1 C937.202149,8834.862 946.673149,8853.285 952.144149,8850.786 L953.115149,8850.312 L950.844149,8845.929 L949.818149,8846.429 C946.655149,8847.976 941.556149,8838.21 944.763149,8836.491 L945.770149,8835.994 L943.519149,8831.596 Z" transform="translate(-939 -8829)"/>
</svg>
