<svg xmlns="http://www.w3.org/2000/svg" width="42" height="32" viewBox="0 0 42 32">
  <path fill="#FFF" d="M20.8103885,0.111221114 C13.5821013,0.119387705 6.57985317,2.63471972 0.997251294,7.22647424 C0.58395494,7.54176587 0.375902088,8.05764022 0.454823163,8.57144383 C0.533744238,9.08524744 0.887031423,9.51489905 1.37590117,9.69161649 C1.86477093,9.86833393 2.41112521,9.7638862 2.800337,9.41930403 C7.87509863,5.24525289 14.2396034,2.95987005 20.8103885,2.95177448 C27.3827004,2.95887586 33.7494322,5.24233706 38.8259882,9.41653023 C39.2163688,9.75334885 39.758615,9.85217336 40.24272,9.67472994 C40.7268249,9.49728652 41.0767597,9.07144271 41.1569977,8.56212395 C41.2372358,8.05280518 41.0351757,7.54000013 40.6290735,7.22231354 C35.0453196,2.63105612 28.0421335,0.117768589 20.8131623,0.111221114 C20.8122377,0.111220211 20.8113131,0.111220211 20.8103885,0.111221114 Z M20.8117754,8.63288121 C15.6507236,8.63288121 10.6439365,10.3938709 6.61594382,13.6191062 C6.21712375,13.9353954 6.01803239,14.4409088 6.09406372,14.9442134 C6.17009505,15.447518 6.50962487,15.8716651 6.98407649,16.0560341 C7.45852812,16.2404032 7.99536405,16.1568066 8.39128967,15.8369016 C11.9158135,13.0147408 16.294824,11.4740737 20.8090016,11.4734346 C25.3229662,11.480536 29.6999244,13.0223904 33.2211653,15.8466106 C33.6158687,16.17463 34.1568205,16.264225 34.6362026,16.0809758 C35.1155848,15.8977266 35.4588362,15.470135 35.5340896,14.9624693 C35.6093431,14.4548036 35.4048939,13.9460241 34.9992856,13.631589 C30.9754401,10.4042233 25.9728067,8.64047969 20.8145492,8.63288121 C20.8136246,8.6328803 20.8127,8.6328803 20.8117754,8.63288121 Z M20.8076147,17.1545413 C17.7285614,17.1623528 14.7328755,18.1659651 12.2734711,20.0228341 C11.6509035,20.4966233 11.5285965,21.3846073 11.9998969,22.0090611 C12.4711972,22.6335149 13.3586859,22.7593655 13.985016,22.2905615 C15.9506448,20.8064433 18.3462305,20.0023381 20.8117754,19.9950947 C23.2757836,20.002196 25.6711981,20.806481 27.637148,22.2919484 C28.0410148,22.6125056 28.5868807,22.6890265 29.0633216,22.4918733 C29.5397626,22.2947201 29.8719471,21.8548583 29.931214,21.3426544 C29.9904809,20.8304505 29.7675215,20.3263532 29.3486921,20.0256086 C26.8906967,18.1683128 23.8953154,17.1605775 20.8145492,17.1545413 C20.8122377,17.1545357 20.8099262,17.1545357 20.8076147,17.1545413 Z M20.8117754,25.6762014 C19.2598036,25.6762014 17.9712221,26.9648184 17.9712221,28.5167548 C17.9712221,30.0687621 19.2598036,31.3573081 20.8117754,31.3573081 C22.3637473,31.3573081 23.6523288,30.0687621 23.6523288,28.5167548 C23.6523288,26.9648184 22.3637473,25.6762014 20.8117754,25.6762014 Z"/>
</svg>
