<svg xmlns="http://www.w3.org/2000/svg" width="99" height="64" viewBox="0 0 99 64">
  <path fill="#EC5345" d="M169.647047,7482.60391 L169.647047,7476.19805 L177.266929,7476.19805 L165.768898,7457 L119.231102,7457 L107.733071,7476.19805 L115.352953,7476.19805 L115.352953,7482.60391 L93,7482.60391 L93,7521 L192,7521 L192,7482.60391 L169.647047,7482.60391 Z M113.384646,7473.01465 L121.043504,7460.22246 L163.937008,7460.22246 L171.595866,7473.01465 L113.384646,7473.01465 Z M115.352953,7517.8166 L96.196063,7517.8166 L96.196063,7485.80684 L115.352953,7485.80684 L115.352953,7517.8166 Z M134.509843,7517.8166 L134.509843,7500.22002 L150.490157,7500.22002 L150.490157,7517.8166 L134.509843,7517.8166 Z M144.098031,7489.16601 C147.742323,7489.90815 150.490157,7493.15014 150.490157,7496.99756 L144.098031,7496.99756 L144.098031,7489.16601 Z M140.901969,7497.01709 L134.509843,7497.01709 C134.509843,7493.15014 137.257677,7489.92768 140.901969,7489.18554 L140.901969,7497.01709 Z M166.450984,7517.8166 L153.68622,7517.8166 L153.68622,7497.01709 C153.68622,7490.84559 148.677756,7485.80684 142.5,7485.80684 C136.341732,7485.80684 131.31378,7490.82606 131.31378,7497.01709 L131.31378,7517.8166 L118.529528,7517.8166 L118.529528,7476.21758 L166.431496,7476.21758 L166.431496,7517.8166 L166.450984,7517.8166 Z M188.803937,7517.8166 L169.647047,7517.8166 L169.647047,7485.80684 L188.803937,7485.80684 L188.803937,7517.8166 Z M112.15689,7489.00977 L112.15689,7501.80195 L99.392126,7501.80195 L99.392126,7489.00977 L112.15689,7489.00977 Z M108.960827,7498.61855 L108.980315,7498.61855 L108.980315,7492.21269 L102.588189,7492.21269 L102.588189,7498.61855 L108.960827,7498.61855 Z M185.607874,7489.00977 L172.84311,7489.00977 L172.84311,7501.80195 L185.607874,7501.80195 L185.607874,7489.00977 Z M182.411811,7498.61855 L176.019685,7498.61855 L176.019685,7492.21269 L182.411811,7492.21269 L182.411811,7498.61855 Z" transform="translate(-93 -7457)"/>
</svg>
