<svg xmlns="http://www.w3.org/2000/svg" width="24" height="24" viewBox="0 0 24 24">
  <path fill="#FFF" d="M947,8873 C952.514,8873 957,8877.486 957,8883 C957,8888.514 952.514,8893 947,8893 C941.486,8893 937,8888.514 937,8883 C937,8877.486 941.486,8873 947,8873 Z M947,8871 C940.373,8871 935,8876.373 935,8883 C935,8889.627 940.373,8895 947,8895 C953.627,8895 959,8889.627 959,8883 C959,8876.373 953.627,8871 947,8871 Z M947.021,8888.824 C943.114,8888.824 941,8886.386 941,8883.238 C941,8879.875 943.381,8877.176 947.638,8877.176 C950.745,8877.176 953,8879.195 953,8881.977 C953,8886.333 947.835,8887.483 948.094,8884.998 C947.74,8885.553 947.167,8886.175 946.068,8886.175 C944.811,8886.175 944.028,8885.255 944.028,8883.772 C944.028,8881.55 945.489,8879.672 947.218,8879.672 C948.047,8879.672 948.617,8880.11 948.856,8880.782 L949.088,8879.966 L950.257,8879.966 C950.135,8880.382 949.096,8884.23 949.096,8884.23 C948.773,8885.563 949.771,8885.586 950.658,8884.878 C952.323,8883.588 952.408,8880.214 950.159,8878.807 C947.748,8877.362 942.262,8878.256 942.262,8883.154 C942.262,8885.96 944.238,8887.845 947.176,8887.845 C948.895,8887.845 949.947,8887.38 950.824,8886.871 L951.412,8887.72 C950.556,8888.202 949.181,8888.824 947.021,8888.824 Z M945.849,8881.671 C945.492,8882.341 945.261,8883.209 945.261,8883.883 C945.261,8885.688 947.022,8885.699 947.887,8884.003 C948.243,8883.306 948.473,8882.417 948.473,8881.738 C948.473,8880.28 946.725,8880.021 945.849,8881.671 Z" transform="translate(-935 -8871)"/>
</svg>
