<svg xmlns="http://www.w3.org/2000/svg" width="101" height="19" viewBox="0 0 101 19">
  <path fill="#FFF" d="M4.68510014,17.3282792 L1.31489986,13.6348053 C10.8749016,4.91154891 21.2239916,0.5 32.2805558,0.5 C39.2913362,0.5 43.6085859,2.20261058 51.7124142,7.00776298 C51.8018764,7.06081168 51.8018764,7.06081168 51.8912231,7.11379425 C59.4272227,11.5825447 63.0924439,13.0283019 69.126062,13.0283019 C79.013211,13.0283019 88.0277632,9.13151737 96.2713,1.24077062 L99.7287,4.85274866 C90.5861252,13.6040582 80.3513855,18.0283019 69.126062,18.0283019 C61.9546939,18.0283019 57.5927762,16.3077307 49.3409556,11.4145076 C49.2515513,11.3614909 49.2515513,11.3614909 49.1622697,11.3085493 C41.774184,6.92779538 38.1537735,5.5 32.2805558,5.5 C22.5347616,5.5 13.3634811,9.40947926 4.68510014,17.3282792 Z"/>
</svg>
