<svg xmlns="http://www.w3.org/2000/svg" xmlns:xlink="http://www.w3.org/1999/xlink" width="1406" height="72" viewBox="0 0 1406 72" preserveAspectRatio="none">
  <defs>
    <path id="waves-bottom-a" d="M127.069141,0 C73.5123995,145.800094 31.1560176,271.444373 -4.49664957e-06,376.932835 L-4.49664957e-06,0 L127.069141,0 Z M1406,790.995995 L1406,792 L7.10542736e-15,792 L7.10542736e-15,790.779387 C140.74386,786.492427 232.607941,721.164062 392.073249,721.164062 C556.948249,721.164063 600.936531,791 781.893562,791 C962.850593,791 971.592781,732.683594 1122.73341,734.1875 C1273.11862,735.68389 1310.96153,790.448473 1406,790.995869 L1406,790.995995 Z"/>
    <path id="waves-bottom-c" d="M127.436526,0 C73.7060657,146.225666 31.2272206,272.203277 -8.99329416e-06,377.932835 L-8.99329416e-06,0 L127.436526,0 Z M1406,792 L-4.49664458e-06,792 L-4.49664458e-06,791.779387 C140.743855,787.492427 232.607936,722.164062 392.073245,722.164063 C556.948245,722.164063 600.936526,792 781.893557,792 C962.850589,792 971.592776,733.683594 1122.7334,735.1875 C1273.11862,736.68389 1310.96153,791.448474 1406,791.995869 L1406,792 Z"/>
    <path id="waves-bottom-e" d="M193,0 L1473,0 C1537.0651,528 1537.0651,792 1473,792 C1376.90234,792 1339.4375,736.691406 1188.29688,735.1875 C1037.15625,733.683594 1028.41406,792 847.457031,792 C666.5,792 622.511719,722.164063 457.636719,722.164062 C292.761719,722.164062 200.152344,792 51.0664063,792 C-48.3242188,792 -1.01302083,528 193,0 Z"/>
  </defs>
  <g fill="none" fill-rule="evenodd">
    <g transform="translate(0 -719)">
      <mask id="waves-bottom-b" fill="#fff">
        <use xlink:href="#waves-bottom-a"/>
      </mask>
      <rect width="1406" height="72" y="719" fill="#FFF" mask="url(#waves-bottom-b)"/>
    </g>
    <g transform="translate(0 -721)">
      <mask id="waves-bottom-d" fill="#fff">
        <use xlink:href="#waves-bottom-c"/>
      </mask>
      <path fill="#F65546" d="M245.934452,552 L1607,552 C1600.65789,613.540076 1582.83672,655.594763 1553.53649,678.164062 C1509.58613,712.018011 1310.60682,784.675781 1148.1654,766.09375 C985.723986,747.511719 990.954707,720 855.760696,720 C720.566685,720 721.465166,793 456.436777,793 C279.751185,793 176.605592,735.921875 147,621.765625 L245.934452,552 Z" mask="url(#waves-bottom-d)"/>
    </g>
    <g transform="translate(-65 -719)">
      <mask id="waves-bottom-f" fill="#fff">
        <use xlink:href="#waves-bottom-e"/>
      </mask>
      <path fill="#FFC8C3" d="M-212.696583,966 L-212.696583,725 L-2.20439522,725 C262.81123,725 261.108105,789.828125 396.295605,789.828125 C531.483105,789.828125 755.277114,725 916.889355,725 C1078.5016,725 1208.93457,771.853082 1252.88281,805.707031 C1282.18164,828.27633 1247.32184,881.70732 1148.30342,966 L-212.696583,966 Z" mask="url(#waves-bottom-f)" opacity=".852"/>
    </g>
  </g>
</svg>
